<svg xmlns="http://www.w3.org/2000/svg" xmlns:xlink="http://www.w3.org/1999/xlink" xmlns:inkscape="http://www.inkscape.org/namespaces/inkscape" version="1.1" width="602.74417" height="393.63035" viewBox="0 0 602.74417 393.63035">
<defs>
<path id="font_1_17" d="M.05517578 0V.051757814H.14794922V.6767578H.05517578V.7294922H.33984376V.6767578H.24707031V.060546876H.5800781V.18261719H.6401367V0H.05517578Z"/>
<path id="font_1_13" d="M.20019531 .26464845H.46777345L.33398438 .6113281 .20019531 .26464845M-.005859375 0V.051757814H.05810547L.3178711 .7294922H.39990235L.66015627 .051757814H.7319336V0H.46679688V.051757814H.54785159L.4868164 .21191406H.18017578L.119140628 .051757814H.19921875V0H-.005859375Z"/>
<path id="font_1_18" d="M.05517578 0V.051757814H.14794922V.6767578H.049804689V.7294922H.26220704L.5180664 .20996094 .7739258 .7294922H.97314456V.6767578H.87597659V.051757814H.9692383V0H.68408206V.051757814H.77685549V.6152344L.52685549 .106933597H.4580078L.20800781 .6152344V.051757814H.30078126V0H.05517578Z"/>
<path id="font_1_14" d="M.24707031 .051757814H.3930664C.45166017 .051757814 .49446617 .064453128 .5214844 .08984375 .5485026 .115234378 .5620117 .15559896 .5620117 .2109375 .5620117 .26595054 .548584 .30607096 .5217285 .33129884 .49487306 .3565267 .4519857 .36914063 .3930664 .36914063H.24707031V.051757814M.24707031 .42089845H.37109376C.42447917 .42089845 .4634603 .43115235 .4880371 .45166017 .51261398 .47216798 .52490237 .5045573 .52490237 .5488281 .52490237 .5934245 .51261398 .6258952 .4880371 .64624026 .4634603 .66658529 .42447917 .6767578 .37109376 .6767578H.24707031V.42089845M.05517578 0V.051757814H.14794922V.6767578H.05517578V.7294922H.41503907C.48860679 .7294922 .5440267 .71441146 .5812988 .6842499 .618571 .6540985 .63720706 .60903427 .63720706 .549057 .63720706 .5056915 .6242676 .47113038 .5983887 .44537355 .57250979 .41962687 .53466799 .40381877 .48486329 .39794923 .5467122 .39013673 .59366866 .37036134 .6257324 .33862306 .6577962 .30688478 .6738281 .2643229 .6738281 .2109375 .6738281 .13867188 .6510417 .08544922 .60546877 .05126953 .5598958 .017089844 .48876954 0 .39208985 0H.05517578Z"/>
<path id="font_1_15" d="M.24707031 .051757814H.33789063C.4326172 .051757814 .50528976 .07877604 .5559082 .1328125 .6065267 .18684896 .63183596 .2643229 .63183596 .36523438 .63183596 .46614585 .6066081 .54329428 .55615237 .5966797 .5056966 .6500651 .43294273 .6767578 .33789063 .6767578H.24707031V.051757814M.05517578 0V.051757814H.14794922V.6767578H.05517578V.7294922H.34521485C.47086589 .7294922 .5687663 .697408 .638916 .63323977 .70906576 .5690715 .7441406 .47981773 .7441406 .36547853 .7441406 .2508138 .7089844 .16123455 .6386719 .09674072 .5683594 .032246908 .47054038 0 .34521485 0H.05517578Z"/>
<path id="font_1_22" d="M.14013672 .6767578H.046875V.7294922H.33203126V.6767578H.23876953V.2998047C.23876953 .20670574 .25398765 .14176433 .28442384 .10498047 .31486003 .06819662 .36735026 .049804689 .44189454 .049804689 .5164388 .049804689 .568929 .06819662 .59936526 .10498047 .62980148 .14176433 .64501956 .20670574 .64501956 .2998047V.6767578H.5517578V.7294922H.79785159V.6767578H.7050781V.29003907C.7050781 .17885335 .68375656 .10027567 .6411133 .05430603 .59847006 .008336385 .5260417-.0146484379 .42382813-.0146484379 .3216146-.0146484379 .2487793 .0084991459 .20532227 .05479431 .16186524 .10109965 .14013672 .17951457 .14013672 .29003907V.6767578Z"/>
<path id="font_1_20" d="M.09277344 .03515625V.20117188L.14892578 .2006836C.15055339 .14534505 .16658528 .104410808 .19702149 .07788086 .22745769 .05135091 .27376304 .038085939 .3359375 .038085939 .39388023 .038085939 .43806968 .049560548 .46850587 .072509769 .49894206 .095458988 .51416018 .12890625 .51416018 .17285156 .51416018 .20800781 .5049642 .23502605 .48657228 .25390626 .46818034 .27278648 .42936198 .29117839 .3701172 .30908204L.27392579 .33789063C.20426433 .35904948 .15519206 .38541667 .12670899 .4169922 .098225917 .44856773 .083984378 .49186198 .083984378 .546875 .083984378 .60872396 .10595703 .6567383 .14990235 .69091799 .19384766 .72509768 .25553385 .7421875 .33496095 .7421875 .3688151 .7421875 .40592448 .7385254 .44628907 .7312012 .48665367 .72387698 .5296224 .7132161 .5751953 .69921877V.5439453H.52001956C.51448568 .59520468 .49731446 .63226827 .46850587 .6551361 .43969728 .6780141 .39583335 .6894531 .33691407 .6894531 .28548179 .6894531 .24633789 .6789754 .21948242 .65802 .19262696 .63706466 .17919922 .60660299 .17919922 .56663516 .17919922 .5318654 .18929036 .50456747 .20947266 .4847412 .22965496 .46492515 .27246095 .44527183 .33789063 .42578126L.42822267 .39892579C.49430339 .37904869 .54142257 .3537089 .5695801 .3229065 .5977376 .29211427 .6118164 .25080873 .6118164 .19898987 .6118164 .1282603 .5891927 .07497152 .5439453 .039123537 .4986979 .0032755535 .4313151-.0146484379 .34179688-.0146484379 .3017578-.0146484379 .26098634-.010538737 .21948242-.002319336 .17797852 .005900065 .13574219 .018391928 .09277344 .03515625Z"/>
<path id="font_1_16" d="M.24707031 .051757814H.33984376V0H.05517578V.051757814H.14794922V.6767578H.05517578V.7294922H.33984376V.6767578H.24707031V.051757814Z"/>
<path id="font_1_19" d="M.421875-.0146484379C.31022135-.0146484379 .22135417 .019632975 .15527344 .0881958 .08919271 .1567688 .056152345 .24854534 .056152345 .3635254 .056152345 .42248536 .06502279 .47517396 .08276367 .5215912 .100504558 .5680084 .12760417 .60945639 .1640625 .64593508 .19596355 .67785647 .23242188 .70187887 .2734375 .7180023 .31445313 .7341258 .36002604 .7421875 .41015626 .7421875 .5159505 .7421875 .6013997 .7074992 .6665039 .63812258 .7316081 .5687459 .76416018 .47722373 .76416018 .3635559 .76416018 .26715089 .7397461 .18613179 .69091799 .12049866 .64208987 .05487569 .57470706 .012619019 .48876954-.0062713625 .50634768-.027776083 .5277507-.04366048 .5529785-.05392456 .57820639-.064198818 .6085612-.06933594 .64404299-.06933594H.6591797V-.16015625C.6041667-.15756226 .55704757-.1441803 .51782229-.120010379 .47859703-.095840457 .4466146-.060719808 .421875-.0146484379M.41015626 .038085939C.48990885 .038085939 .5501302 .06549072 .5908203 .12030029 .63151046 .17510987 .65185549 .2561849 .65185549 .3635254 .65185549 .4711914 .63151046 .5524292 .5908203 .60723879 .5501302 .66204836 .48990885 .6894531 .41015626 .6894531 .33007813 .6894531 .269694 .66204836 .2290039 .60723879 .1883138 .5524292 .16796875 .4711914 .16796875 .3635254 .16796875 .2561849 .1883138 .17510987 .2290039 .12030029 .269694 .06549072 .33007813 .038085939 .41015626 .038085939Z"/>
<path id="font_1_21" d="M.19091797 0V.051757814H.2841797V.67089846H.06982422V.5566406H.009765625V.7294922H.65722659V.5566406H.59716799V.67089846H.3828125V.051757814H.47607423V0H.19091797Z"/>
<path id="font_1_23" d="M.39794923 .1628418V.27246095H.28222657C.2376302 .27246095 .20442708 .26287843 .18261719 .24371338 .1608073 .22454834 .14990235 .19514974 .14990235 .15551758 .14990235 .11945597 .16097005 .09086609 .18310547 .069747928 .20524089 .048639936 .2351888 .038085939 .27294923 .038085939 .31038413 .038085939 .34057618 .049616498 .3635254 .07267761 .3864746 .0957489 .39794923 .12580364 .39794923 .1628418M.48779298 .3242035V.051757814H.5678711V0H.39794923V.056137086C.37809245 .031885785 .35514323 .014022827 .32910157 .0025482178 .3030599-.008916219 .2726237-.0146484379 .23779297-.0146484379 .18017578-.0146484379 .13444011 .0006713867 .10058594 .031311037 .06673177 .061960859 .049804689 .10336304 .049804689 .15551758 .049804689 .20930989 .06917318 .2510376 .107910159 .28070069 .14664714 .31036378 .20133464 .3251953 .27197267 .3251953H.39794923V.3605652C.39794923 .399882 .38598634 .43034364 .36206056 .45195008 .33813478 .47356669 .30452476 .484375 .26123048 .484375 .22542317 .484375 .19694011 .47623698 .17578125 .45996095 .15462239 .4436849 .1414388 .41959635 .13623047 .3876953H.08984375V.49316407C.12109375 .50651046 .15144857 .5165202 .1809082 .52319338 .21036785 .5298665 .23909505 .5332031 .26708985 .5332031 .33902995 .5332031 .39379884 .5153758 .43139649 .47972108 .46899415 .44407655 .48779298 .39223735 .48779298 .3242035Z"/>
<path id="font_1_33" d="M.056152345 .028320313V.14941406H.107910159C.10921224 .110839847 .12133789 .08199056 .14428711 .06286621 .16723633 .043741865 .20117188 .034179689 .24609375 .034179689 .28645835 .034179689 .31722007 .041732789 .3383789 .05683899 .35953776 .07195536 .3701172 .09397379 .3701172 .12289429 .3701172 .14564006 .36238609 .16399639 .34692384 .17796326 .33146159 .19194031 .29882813 .20688884 .24902344 .22280884L.18408203 .24482727C.13948567 .25916038 .107177738 .27707926 .0871582 .29858399 .06713867 .32009889 .057128908 .34747315 .057128908 .3807068 .057128908 .4282837 .07454427 .46559144 .109375 .49263 .14420574 .5196788 .19238281 .5332031 .25390626 .5332031 .28125 .5332031 .3100586 .5296224 .34033204 .52246096 .37060548 .5152995 .40185548 .5048828 .43408204 .49121095V.3779297H.38232423C.38102214 .41130577 .36930339 .4373881 .34716798 .45617677 .32503257 .4749756 .29492188 .484375 .25683595 .484375 .21907552 .484375 .19051107 .477712 .17114258 .464386 .1517741 .45107017 .14208985 .4310964 .14208985 .40446473 .14208985 .38269554 .14941406 .36522929 .1640625 .35206605 .17871094 .33891297 .20800781 .32551576 .25195313 .3118744L.3232422 .28985597C.37239585 .27453614 .40779624 .25539146 .42944337 .23242188 .45109049 .20945232 .46191407 .17988079 .46191407 .14370728 .46191407 .09451294 .44311524 .055821737 .40551759 .027633667 .36791993-.00055440267 .31608073-.0146484379 .25-.0146484379 .21647136-.0146484379 .18375652-.011067708 .15185547-.00390625 .11995443 .0032552083 .08805338 .0139973959 .056152345 .028320313Z"/>
<path id="font_1_29" d="M.2861328 0H.034179689V.051757814H.115234378V.7080078H.028808594V.7597656H.20507813V.26513673L.42382813 .46679688H.3491211V.51953127H.5839844V.46679688H.4951172L.3408203 .32421876 .53808596 .051757814H.61279299V0H.3569336V.051757814H.43115235L.2758789 .26513673 .20507813 .19921875V.051757814H.2861328V0Z"/>
<clipPath id="clip_2">
<path transform="matrix(1,0,0,-1,0,393.63035)" d="M52.088125 48.431875H596.98416V303.16789H52.088125Z"/>
</clipPath>
<path id="font_1_4" d="M.3178711 .034179689C.36767579 .034179689 .4049479 .061503095 .4296875 .1161499 .4544271 .1707967 .46679688 .25325523 .46679688 .3635254 .46679688 .4741211 .4544271 .55674239 .4296875 .61138918 .4049479 .66603597 .36767579 .6933594 .3178711 .6933594 .2680664 .6933594 .23079427 .66603597 .20605469 .61138918 .18131511 .55674239 .16894531 .4741211 .16894531 .3635254 .16894531 .25325523 .18131511 .1707967 .20605469 .1161499 .23079427 .061503095 .2680664 .034179689 .3178711 .034179689M.3178711-.0146484379C.23876953-.0146484379 .17700196 .018575034 .13256836 .08502197 .088134769 .15146892 .06591797 .24430339 .06591797 .3635254 .06591797 .4830729 .088134769 .57607015 .13256836 .6425171 .17700196 .70896407 .23876953 .7421875 .3178711 .7421875 .3972982 .7421875 .45914714 .70896407 .50341799 .6425171 .5476888 .57607015 .5698242 .4830729 .5698242 .3635254 .5698242 .24430339 .5476888 .15146892 .50341799 .08502197 .45914714 .018575034 .3972982-.0146484379 .3178711-.0146484379Z"/>
<clipPath id="clip_3">
<path transform="matrix(1,0,0,-1,0,393.63035)" d="M52.088125 48.431875H596.98416V303.16789H52.088125Z"/>
</clipPath>
<path id="font_1_9" d="M.5029297 .7294922V.64941409H.16894531V.43910218C.18587239 .45093284 .20564778 .45980836 .22827149 .46572877 .25089518 .47164918 .27620445 .47460938 .30419923 .47460938 .38297526 .47460938 .44514976 .45279948 .49072267 .4091797 .5362956 .3655599 .55908206 .3059896 .55908206 .23046875 .55908206 .15332031 .53605148 .093180339 .48999024 .050048829 .44392906 .006917318 .37923179-.0146484379 .29589845-.0146484379 .26236979-.0146484379 .22802735-.010538737 .1928711-.002319336 .15771485 .005900065 .12174479 .018391928 .08496094 .03515625V.17675781H.14013672C.1430664 .13053386 .15779622 .095214847 .18432617 .07080078 .21085613 .04638672 .24804688 .034179689 .29589845 .034179689 .34733073 .034179689 .3868815 .051060995 .41455079 .08482361 .44222007 .1185964 .4560547 .16714478 .4560547 .23046875 .4560547 .29345704 .44230143 .3417562 .41479493 .3753662 .38728843 .40897624 .34765626 .42578126 .29589845 .42578126 .26660157 .42578126 .24080403 .42053224 .21850586 .41003419 .19620769 .39953614 .1764323 .38330079 .15917969 .36132813H.1171875V.7294922H.5029297Z"/>
<clipPath id="clip_4">
<path transform="matrix(1,0,0,-1,0,393.63035)" d="M52.088125 48.431875H596.98416V303.16789H52.088125Z"/>
</clipPath>
<path id="font_1_5" d="M.14208985 0V.051757814H.26904298V.6582031L.12207031 .5629883V.6269531L.2998047 .7421875H.3671875V.051757814H.49414063V0H.14208985Z"/>
<clipPath id="clip_5">
<path transform="matrix(1,0,0,-1,0,393.63035)" d="M52.088125 48.431875H596.98416V303.16789H52.088125Z"/>
</clipPath>
<clipPath id="clip_6">
<path transform="matrix(1,0,0,-1,0,393.63035)" d="M52.088125 48.431875H596.98416V303.16789H52.088125Z"/>
</clipPath>
<path id="font_1_6" d="M.12792969 .5546875H.07324219V.6845703C.108072917 .7032878 .14314778 .71757 .1784668 .727417 .21378581 .737264 .24837239 .7421875 .28222657 .7421875 .3580729 .7421875 .41796876 .72379049 .46191407 .68699648 .5058594 .65020248 .52783206 .6002248 .52783206 .5370636 .52783206 .46575419 .47802735 .3804423 .37841798 .28112794 .37060548 .27364097 .3647461 .26794435 .36083985 .2640381L.17675781 .080078128H.48095704V.16992188H.53808596V0H.067871097V.05319214L.2890625 .27378846C.33789063 .3225759 .37272135 .3673757 .3935547 .40818788 .41438804 .44901023 .4248047 .49186708 .4248047 .5367584 .4248047 .5858714 .41202799 .62424728 .3864746 .651886 .36092124 .6795349 .3256836 .6933594 .28076173 .6933594 .23421224 .6933594 .19824219 .6818034 .17285156 .6586914 .14746094 .6355794 .13248699 .60091146 .12792969 .5546875Z"/>
<clipPath id="clip_7">
<path transform="matrix(1,0,0,-1,0,393.63035)" d="M52.088125 48.431875H596.98416V303.16789H52.088125Z"/>
</clipPath>
<clipPath id="clip_8">
<path transform="matrix(1,0,0,-1,0,393.63035)" d="M52.088125 48.431875H596.98416V303.16789H52.088125Z"/>
</clipPath>
<path id="font_1_7" d="M.09716797 .6982422C.1352539 .7125651 .17179363 .72347006 .20678711 .73095706 .2417806 .73844406 .2745768 .7421875 .30517579 .7421875 .37646485 .7421875 .4321289 .72680667 .47216798 .6960449 .51220706 .6652832 .53222659 .6225586 .53222659 .5678711 .53222659 .5239258 .5183919 .4872233 .49072267 .45776368 .46305339 .42830406 .42382813 .40836589 .37304688 .39794923 .43294273 .3894755 .4794108 .36772157 .5124512 .33268739 .5454915 .2976532 .5620117 .25226847 .5620117 .1965332 .5620117 .12841797 .53914389 .07619222 .4934082 .039855958 .44767253 .003519694 .38183595-.0146484379 .29589845-.0146484379 .2578125-.0146484379 .22062175-.010538737 .18432617-.002319336 .1480306 .005900065 .111979167 .018391928 .076171878 .03515625V.17675781H.13085938C.13411458 .12988281 .14990235 .09440104 .17822266 .0703125 .20654297 .046223958 .24641927 .034179689 .29785157 .034179689 .34765626 .034179689 .3869629 .048583986 .41577149 .07739258 .44458009 .10620117 .45898438 .14567058 .45898438 .19580078 .45898438 .25309245 .4441732 .2964681 .41455079 .32592774 .38492839 .35538737 .34147135 .3701172 .2841797 .3701172H.23779297V.41992188H.26220704C.3191732 .41992188 .3618978 .43170167 .39038087 .45526124 .41886393 .4788208 .43310548 .5143178 .43310548 .5617523 .43310548 .60432437 .42138673 .63690188 .39794923 .65948489 .37451173 .6820679 .3408203 .6933594 .296875 .6933594 .2529297 .6933594 .21883138 .6829427 .19458008 .6621094 .17032878 .64127609 .15608724 .61035159 .15185547 .56933596H.09716797V.6982422Z"/>
<clipPath id="clip_9">
<path transform="matrix(1,0,0,-1,0,393.63035)" d="M52.088125 48.431875H596.98416V303.16789H52.088125Z"/>
</clipPath>
<path id="font_1_25" d="M.51416018 .15625C.50146487 .10059611 .47705079 .05819702 .44091798 .029052735 .40478517-.00008138021 .3580729-.0146484379 .30078126-.0146484379 .22526042-.0146484379 .16455078 .010355632 .118652347 .06036377 .072753909 .11038208 .049804689 .17676799 .049804689 .25952149 .049804689 .3426005 .072753909 .40898133 .118652347 .45866395 .16455078 .50835677 .22526042 .5332031 .30078126 .5332031 .33365885 .5332031 .3663737 .5293376 .39892579 .52160647 .43147788 .5138753 .46419273 .5021159 .4970703 .48632813V.35351563H.44482423C.43798829 .39908854 .4230957 .43229167 .40014649 .453125 .37719728 .47395835 .34440104 .484375 .3017578 .484375 .25325523 .484375 .21663411 .46559654 .19189453 .42803956 .16715496 .39048258 .15478516 .3343099 .15478516 .25952149 .15478516 .18473308 .16707357 .128479 .19165039 .09075928 .21622722 .05303955 .2529297 .034179689 .3017578 .034179689 .34049479 .034179689 .37141929 .044311525 .39453126 .064575199 .41764323 .08483887 .433431 .11539713 .44189454 .15625H.51416018Z"/>
<path id="font_1_34" d="M.3540039 .51953127H.52197268V.051757814H.6069336V0H.4321289V.091796878C.41552735 .057128908 .39404298 .03072103 .36767579 .012573242 .3413086-.0055745446 .31070964-.0146484379 .2758789-.0146484379 .21826172-.0146484379 .17586263 .0017445883 .14868164 .03453064 .12150065 .067326869 .107910159 .11880493 .107910159 .18896485V.46679688H.026855469V.51953127H.19824219V.21679688C.19824219 .15364583 .20597331 .11035156 .22143555 .08691406 .23689778 .06347656 .2644857 .051757814 .30419923 .051757814 .34586589 .051757814 .37760417 .06705729 .39941407 .09765625 .42122398 .1282552 .4321289 .1726888 .4321289 .23095703V.46679688H.3540039V.51953127Z"/>
<path id="font_1_32" d="M.47802735 .51953127V.38964845H.42626954C.42464195 .41552735 .41748048 .43485514 .40478517 .44763185 .39208985 .46040855 .37353517 .46679688 .3491211 .46679688 .30485026 .46679688 .2709147 .4514669 .24731446 .42080689 .22371419 .39015708 .21191406 .34613038 .21191406 .2887268V.051757814H.31591798V0H.041015626V.051757814H.12207031V.46777345H.036132814V.51953127H.21191406V.4264984C.22949219 .46272279 .25211589 .489563 .27978517 .50701907 .30745445 .5244751 .34114585 .5332031 .38085938 .5332031 .3955078 .5332031 .41088868 .532018 .42700196 .5296478 .44311524 .5272878 .4601237 .5239156 .47802735 .51953127Z"/>
<path id="font_1_36" d="M.21582031-.09474182 .25-.008392334 .056152345 .46679688H-.0029296876V.51953127H.23583985V.46679688H.15283203L.29882813 .10986328 .44482423 .46679688H.3671875V.51953127H.5620117V.46679688H.50390627L.26611329-.11677551C.24983724-.15748596 .23177083-.18530782 .21191406-.20024109 .1920573-.21518453 .1640625-.22265625 .12792969-.22265625 .11263021-.22265625 .09692383-.2213084 .08081055-.21861267 .064697269-.21592713 .048502607-.21206665 .032226564-.20703125V-.107421878H.078125C.080078128-.12973023 .08569336-.14572144 .0949707-.15539551 .10424805-.16507976 .118652347-.16992188 .1381836-.16992188 .15608724-.16992188 .17049153-.16492717 .18139649-.15493775 .19230144-.14494832 .20377605-.12488302 .21582031-.09474182Z"/>
<clipPath id="clip_10">
<path transform="matrix(1,0,0,-1,0,393.63035)" d="M52.088125 48.431875H596.98416V303.16789H52.088125Z"/>
</clipPath>
<clipPath id="clip_11">
<path transform="matrix(1,0,0,-1,0,393.63035)" d="M52.088125 48.431875H596.98416V303.16789H52.088125Z"/>
</clipPath>
<clipPath id="clip_12">
<path transform="matrix(1,0,0,-1,0,393.63035)" d="M52.088125 48.431875H596.98416V303.16789H52.088125Z"/>
</clipPath>
<clipPath id="clip_13">
<path transform="matrix(1,0,0,-1,0,393.63035)" d="M52.088125 48.431875H596.98416V303.16789H52.088125Z"/>
</clipPath>
<clipPath id="clip_14">
<path transform="matrix(1,0,0,-1,0,393.63035)" d="M52.088125 48.431875H596.98416V303.16789H52.088125Z"/>
</clipPath>
<clipPath id="clip_15">
<path transform="matrix(1,0,0,-1,0,393.63035)" d="M52.088125 48.431875H596.98416V303.16789H52.088125Z"/>
</clipPath>
<clipPath id="clip_16">
<path transform="matrix(1,0,0,-1,0,393.63035)" d="M52.088125 48.431875H596.98416V303.16789H52.088125Z"/>
</clipPath>
<clipPath id="clip_17">
<path transform="matrix(1,0,0,-1,0,393.63035)" d="M52.088125 48.431875H596.98416V303.16789H52.088125Z"/>
</clipPath>
<clipPath id="clip_18">
<path transform="matrix(1,0,0,-1,0,393.63035)" d="M52.088125 48.431875H596.98416V303.16789H52.088125Z"/>
</clipPath>
<clipPath id="clip_19">
<path transform="matrix(1,0,0,-1,0,393.63035)" d="M52.088125 48.431875H596.98416V303.16789H52.088125Z"/>
</clipPath>
<clipPath id="clip_20">
<path transform="matrix(1,0,0,-1,0,393.63035)" d="M52.088125 48.431875H596.98416V303.16789H52.088125Z"/>
</clipPath>
<clipPath id="clip_21">
<path transform="matrix(1,0,0,-1,0,393.63035)" d="M52.088125 48.431875H596.98416V303.16789H52.088125Z"/>
</clipPath>
<clipPath id="clip_22">
<path transform="matrix(1,0,0,-1,0,393.63035)" d="M52.088125 48.431875H596.98416V303.16789H52.088125Z"/>
</clipPath>
<clipPath id="clip_23">
<path transform="matrix(1,0,0,-1,0,393.63035)" d="M52.088125 48.431875H596.98416V303.16789H52.088125Z"/>
</clipPath>
<clipPath id="clip_24">
<path transform="matrix(1,0,0,-1,0,393.63035)" d="M52.088125 48.431875H596.98416V303.16789H52.088125Z"/>
</clipPath>
<clipPath id="clip_25">
<path transform="matrix(1,0,0,-1,0,393.63035)" d="M52.088125 48.431875H596.98416V303.16789H52.088125Z"/>
</clipPath>
<path id="font_26_8" d="M.13720703 0V.059570314H.27392579V.6489868L.12207031 .55921939V.63191226L.30517579 .7421875H.45898438V.059570314H.5961914V0H.13720703Z"/>
<path id="font_26_10" d="M.24609375 .43121339C.2672526 .44828288 .29093424 .461085 .31713868 .46961976 .3433431 .4781545 .37190757 .48242188 .40283204 .48242188 .4773763 .48242188 .5358887 .46061198 .57836917 .4169922 .6208496 .3733724 .64208987 .31347657 .64208987 .23730469 .64208987 .15690105 .61816409 .094807948 .5703125 .05102539 .52246096 .0072428386 .4544271-.0146484379 .36621095-.0146484379 .26660157-.0146484379 .19116211 .015401204 .13989258 .07550049 .08862305 .13559978 .06298828 .22395325 .06298828 .3405609 .06298828 .47312928 .09147135 .5732066 .1484375 .64079287 .20540364 .7083893 .2898763 .7421875 .40185548 .7421875 .43115235 .7421875 .4625651 .7397461 .49609376 .7348633 .5296224 .72998049 .56559249 .72265627 .6040039 .7128906V.5830078H.5449219C.5367839 .6163737 .521403 .6416423 .4987793 .6588135 .4761556 .6759847 .4469401 .6845703 .4111328 .6845703 .3531901 .6845703 .3112793 .6646779 .2854004 .6248932 .25952149 .5851186 .24641927 .52055868 .24609375 .43121339M.35498048 .04296875C.38850913 .04296875 .4124349 .057174684 .4267578 .08558655 .44108073 .11399841 .4482422 .16326905 .4482422 .23339844 .4482422 .30352784 .44108073 .35279847 .4267578 .38121034 .4124349 .4096222 .38850913 .42382813 .35498048 .42382813 .3214518 .42382813 .29760743 .4096222 .28344728 .38121034 .2692871 .35279847 .26220704 .30352784 .26220704 .23339844 .26220704 .16326905 .2692871 .11399841 .28344728 .08558655 .29760743 .057174684 .3214518 .04296875 .35498048 .04296875Z"/>
<path id="font_26_6" d="M.08105469 .07885742C.08105469 .10431925 .09016927 .1261851 .10839844 .14445496 .12662761 .16273499 .1484375 .171875 .17382813 .171875 .19954427 .171875 .22151692 .16273499 .2397461 .14445496 .25797526 .1261851 .26708985 .10431925 .26708985 .07885742 .26708985 .05307007 .25797526 .031036377 .2397461 .012756348 .22151692-.0055135095 .19954427-.0146484379 .17382813-.0146484379 .1484375-.0146484379 .12662761-.0055135095 .10839844 .012756348 .09016927 .031036377 .08105469 .05307007 .08105469 .07885742Z"/>
<path id="font_26_11" d="M.61279299 .60539248 .31201173 0H.21289063L.5058594 .5908203H.1459961V.4921875H.07910156V.7294922H.61279299V.60539248Z"/>
<path id="font_26_12" d="M.46484376 .38793946C.52278646 .37848918 .5668132 .3571523 .5969238 .32392884 .6270345 .29070536 .64208987 .2472229 .64208987 .19348145 .64208987 .12638347 .6167806 .074920658 .5661621 .039093019 .51554366 .0032653809 .44254557-.0146484379 .34716798-.0146484379 .25179038-.0146484379 .17871094 .0032653809 .12792969 .039093019 .07714844 .074920658 .051757814 .12638347 .051757814 .19348145 .051757814 .2472229 .06689453 .29070536 .09716797 .32392884 .1274414 .3571523 .17138672 .37848918 .2290039 .38793946 .17789714 .39966838 .13964844 .41929627 .11425781 .44682313 .08886719 .47434999 .076171878 .5092824 .076171878 .5516205 .076171878 .6135203 .09928385 .6607564 .14550781 .69332888 .19173177 .7259013 .2589518 .7421875 .34716798 .7421875 .4350586 .7421875 .50219729 .7259013 .548584 .69332888 .5949707 .6607564 .61816409 .6135203 .61816409 .5516205 .61816409 .5092824 .6053874 .47434999 .579834 .44682313 .5542806 .41929627 .5159505 .39966838 .46484376 .38793946M.42919923 .54956057C.42919923 .6009013 .4230143 .63623556 .41064454 .65556338 .39827476 .6749013 .37711589 .6845703 .34716798 .6845703 .31689454 .6845703 .2956543 .6749013 .28344728 .65556338 .27124024 .63623556 .26513673 .6009013 .26513673 .54956057 .26513673 .49854533 .27124024 .4635315 .28344728 .44451905 .2956543 .42551676 .31689454 .41601563 .34716798 .41601563 .3774414 .41601563 .39868165 .42551676 .41088868 .44451905 .4230957 .4635315 .42919923 .49854533 .42919923 .54956057M.4482422 .2019043C.4482422 .26138307 .44067384 .30233256 .4255371 .3247528 .4104004 .34718324 .38427735 .35839845 .34716798 .35839845 .30973307 .35839845 .28352867 .34718324 .2685547 .3247528 .25358073 .30233256 .24609375 .26138307 .24609375 .2019043 .24609375 .14177449 .2536621 .100250247 .26879884 .07733154 .28393556 .054423017 .3100586 .04296875 .34716798 .04296875 .3839518 .04296875 .4099935 .054423017 .42529298 .07733154 .44059245 .100250247 .4482422 .14177449 .4482422 .2019043Z"/>
<path id="font_26_3" d=""/>
<path id="font_26_13" d="M.046875 0V.059570314H.14013672V.6699219H.046875V.7294922H.70214846V.5566406H.6347656V.6621094H.328125V.42871095H.51904299V.5214844H.5859375V.26953126H.51904299V.3623047H.328125V.06738281H.64404299V.17285156H.7109375V0H.046875Z"/>
<path id="font_26_14" d="M.046875 0V.059570314H.14013672V.6699219H.046875V.7294922H.69677737V.5566406H.6298828V.6621094H.32910157V.42871095H.51416018V.5214844H.5810547V.26953126H.51416018V.3623047H.32910157V.059570314H.44384767V0H.046875Z"/>
<path id="font_26_15" d="M.046875 0V.059570314H.14013672V.6699219H.046875V.7294922H.421875V.6699219H.328125V.06738281H.6152344V.18261719H.68115237V0H.046875Z"/>
<path id="font_26_16" d="M.4350586 .044921876C.49723307 .044921876 .54345706 .07110596 .57373049 .12347412 .6040039 .17584229 .6191406 .25585938 .6191406 .3635254 .6191406 .47151695 .6040039 .5516968 .57373049 .60406497 .54345706 .6564331 .49723307 .6826172 .4350586 .6826172 .37320964 .6826172 .32706706 .65618899 .29663087 .6033325 .26619468 .5504761 .25097657 .47054038 .25097657 .3635254 .25097657 .25683595 .26619468 .17706299 .29663087 .12420654 .32706706 .0713501 .37320964 .044921876 .4350586 .044921876M.4350586-.0146484379C.31233726-.0146484379 .21614583 .018900553 .14648438 .085998538 .076822917 .15310669 .041992189 .24561565 .041992189 .3635254 .041992189 .48143516 .0769043 .5740204 .14672852 .6412811 .21655274 .70855209 .31266276 .7421875 .4350586 .7421875 .55777999 .7421875 .6539714 .7086334 .7236328 .64152529 .79329428 .5744273 .828125 .48176066 .828125 .3635254 .828125 .24561565 .7932129 .15310669 .7233887 .085998538 .65356448 .018900553 .5574544-.0146484379 .4350586-.0146484379Z"/>
<path id="font_26_17" d="M.046875 0V.059570314H.14013672V.6699219H.046875V.7294922H.46191407C.54296877 .7294922 .6074219 .7101796 .65527346 .67155459 .703125 .63293966 .7270508 .5812073 .7270508 .5163574 .7270508 .45118205 .70304366 .39911906 .6550293 .36016847 .60701498 .32122804 .54264327 .3017578 .46191407 .3017578H.328125V.059570314H.44580079V0H.046875M.328125 .36132813H.3828125C.42513023 .36132813 .45890299 .37538148 .48413087 .40348817 .5093587 .431605 .52197268 .46922813 .52197268 .5163574 .52197268 .5631612 .5094401 .6004537 .484375 .62823489 .4593099 .6560262 .42545573 .6699219 .3828125 .6699219H.328125V.36132813Z"/>
<path id="font_26_21" d="M.046875 .0146484379V.16015625H.10205078C.10660807 .12141927 .12109375 .09187826 .14550781 .0715332 .16992188 .051188154 .203125 .041015626 .24511719 .041015626 .28027345 .041015626 .3072103 .047114057 .32592774 .059310914 .34464518 .071507778 .3540039 .08898926 .3540039 .11175537 .3540039 .13256836 .34806315 .14866638 .33618165 .16004944 .32430015 .1714325 .30126954 .18135071 .26708985 .18980408L.19580078 .20777893C.14208985 .22113545 .1031901 .24026998 .07910156 .2651825 .05501302 .2901052 .04296875 .32374064 .04296875 .36608888 .04296875 .42244468 .0625 .464386 .1015625 .49191285 .140625 .5194397 .20084636 .5332031 .28222657 .5332031 .31282554 .5332031 .34545899 .53068038 .38012696 .52563479 .41479493 .5205892 .453125 .5126953 .4951172 .5019531V.3701172H.4399414C.43701173 .40576173 .4243978 .4325765 .4020996 .45056153 .37980143 .46854655 .347819 .47753907 .30615235 .47753907 .2709961 .47753907 .24438477 .47190858 .22631836 .46064759 .20825196 .4493866 .19921875 .4329834 .19921875 .411438 .19921875 .393809 .20442708 .37993369 .21484375 .369812 .22526042 .35970054 .24397786 .35121665 .2709961 .34436036L.34179688 .32637025C.40983073 .3091278 .4568685 .28782145 .48291017 .26245118 .50895187 .23709107 .52197268 .20180257 .52197268 .1565857 .52197268 .09804281 .5010579 .05486552 .45922853 .027053833 .41739909-.00074768069 .3523763-.0146484379 .26416017-.0146484379 .2319336-.0146484379 .1977539-.012207031 .1616211-.0073242189 .12548828-.0024414063 .087239589 .0048828127 .046875 .0146484379Z"/>
<path id="font_26_4" d="M.42089845-.15625C.3111979-.11553955 .22932942-.057240804 .17529297 .01864624 .12125651 .09453329 .09423828 .18882244 .09423828 .30151368 .09423828 .41420494 .12093099 .5080058 .1743164 .58291628 .22770183 .6578267 .30989585 .71677657 .42089845 .7597656V.7011719C.36946617 .66990157 .33243815 .6235657 .30981446 .5621643 .28719078 .50077316 .2758789 .41388957 .2758789 .30151368 .2758789 .1894633 .28719078 .10273743 .30981446 .04133606 .33243815-.020055136 .36946617-.0663859 .42089845-.09765625V-.15625Z"/>
<path id="font_26_9" d="M.0859375 .7080078C.12890625 .71940109 .17057292 .727946 .2109375 .7336426 .2513021 .7393392 .2906901 .7421875 .32910157 .7421875 .4169922 .7421875 .4844564 .72648116 .53149417 .69506838 .5785319 .6636556 .6020508 .61865237 .6020508 .5600586 .6020508 .5161133 .5885417 .48046876 .56152346 .453125 .5345052 .42578126 .49495445 .4073893 .4428711 .39794923 .50634768 .3878479 .55371096 .36617533 .58496096 .33293153 .61621096 .2996877 .63183596 .2542216 .63183596 .1965332 .63183596 .12841797 .6048991 .07619222 .5510254 .039855958 .4971517 .003519694 .41910807-.0146484379 .31689454-.0146484379 .27848307-.0146484379 .2388509-.0113932299 .19799805-.0048828127 .15714519 .0016276041 .11442057 .0113932299 .06982422 .024414063V.18554688H.12890625C.13248699 .13916016 .14697266 .10380045 .17236328 .07946777 .1977539 .05513509 .23291016 .04296875 .27783204 .04296875 .3273112 .04296875 .3655599 .056722005 .39257813 .084228519 .41959635 .11173502 .43310548 .15071614 .43310548 .20117188 .43310548 .25390626 .4190267 .29459635 .39086915 .3232422 .36271159 .35188804 .3227539 .36621095 .2709961 .36621095H.23876953V.4248047H.26416017C.31201173 .4248047 .34798179 .43585206 .3720703 .45794679 .39615885 .4800415 .40820313 .5130208 .40820313 .55688479 .40820313 .59814456 .39689128 .6297404 .37426759 .65167239 .3516439 .6736043 .3191732 .6845703 .27685548 .6845703 .23844402 .6845703 .20800781 .67407229 .18554688 .6530762 .16308594 .6320801 .14957683 .6015625 .14501953 .56152346H.0859375V.7080078Z"/>
<path id="font_26_7" d="M.34814454 .04296875C.38720704 .04296875 .4139811 .060694379 .4284668 .09614563 .44295249 .13160706 .4501953 .22073365 .4501953 .3635254 .4501953 .5053406 .44295249 .5942993 .4284668 .6304016 .4139811 .6665141 .38720704 .6845703 .34814454 .6845703 .30908204 .6845703 .28230796 .6668396 .26782228 .6313782 .25333659 .59592697 .24609375 .50664266 .24609375 .3635254 .24609375 .22073365 .25333659 .13160706 .26782228 .09614563 .28230796 .060694379 .30908204 .04296875 .34814454 .04296875M.34814454-.0146484379C.2508138-.0146484379 .17626953 .017842612 .12451172 .08282471 .072753909 .14780681 .046875 .2413737 .046875 .3635254 .046875 .4856771 .072753909 .5793254 .12451172 .6444702 .17626953 .70961508 .2508138 .7421875 .34814454 .7421875 .44514976 .7421875 .51953127 .70961508 .57128909 .6444702 .6230469 .5793254 .6489258 .4856771 .6489258 .3635254 .6489258 .2413737 .6230469 .14780681 .57128909 .08282471 .51953127 .017842612 .44514976-.0146484379 .34814454-.0146484379Z"/>
<path id="font_26_19" d="M.3461914 0H.034179689V.059570314H.107910159V.7011719H.034179689V.7597656H.28076173V.27220155L.49023438 .45996095H.42822267V.51953127H.66503909V.45996095H.56884768L.4350586 .33999635 .6538086 .059570314H.70996096V0H.41210938V.059570314H.47314454L.32910157 .24440003 .28076173 .20147705V.059570314H.3461914V0Z"/>
<path id="font_26_22" d="M.099121097 .45996095H.023925782V.51953127H.099121097V.68066409H.27197267V.51953127H.41601563V.45996095H.27197267V.14208985C.27197267 .096842449 .27555339 .0686849 .28271485 .057617189 .2898763 .04654948 .30289714 .041015626 .32177735 .041015626 .3426107 .041015626 .3580729 .048014326 .36816407 .06201172 .37825523 .07600912 .3836263 .09765625 .38427735 .12695313H.45703126C.45410157 .07468668 .43986003 .038019819 .41430665 .016952515 .38875328-.0041147868 .34472657-.0146484379 .28222657-.0146484379 .2109375-.0146484379 .16259766-.0034637452 .13720703 .01890564 .111816409 .041275026 .099121097 .082336429 .099121097 .14208985V.45996095Z"/>
<path id="font_26_18" d="M.4008789 .29296876C.4008789 .36114503 .39453126 .4089508 .38183595 .4363861 .36914063 .4638214 .3474935 .47753907 .31689454 .47753907 .28727214 .47753907 .2660319 .46406556 .25317384 .43711854 .24031575 .4101715 .23388672 .3650411 .23388672 .3017273V.29296876H.4008789M.5908203 .234375H.23388672V.23049927C.23388672 .16360474 .24397786 .1153005 .26416017 .08558655 .28434245 .0558726 .31689454 .041015626 .3618164 .041015626 .3992513 .041015626 .42952476 .05094401 .45263673 .07080078 .4757487 .090657558 .4905599 .11946615 .4970703 .15722656H.578125C.5641276 .09813436 .5362956 .054712934 .4946289 .02696228 .45296226-.00077819827 .394694-.0146484379 .31982423-.0146484379 .22998047-.0146484379 .16105144 .009053548 .11303711 .05645752 .06502279 .10386149 .041015626 .17154949 .041015626 .25952149 .041015626 .34554038 .065592449 .4126587 .114746097 .46087647 .16389974 .50909426 .23225911 .5332031 .31982423 .5332031 .40576173 .5332031 .4716797 .5078532 .5175781 .45715333 .56347659 .40645347 .5878906 .332194 .5908203 .234375Z"/>
<path id="font_26_20" d="M.27001954 .28494264V.23361206C.27001954 .17299398 .27775065 .12915547 .2932129 .10209656 .30867515 .07504781 .33365885 .061523439 .36816407 .061523439 .40364585 .061523439 .42862956 .07586161 .44311524 .104537967 .45760093 .13322449 .46484376 .18488567 .46484376 .25952149 .46484376 .33415733 .45760093 .38573203 .44311524 .4142456 .42862956 .44276939 .40364585 .45703126 .36816407 .45703126 .33365885 .45703126 .30867515 .4435018 .2932129 .41644288 .27775065 .38939414 .27001954 .3455607 .27001954 .28494264M.09716797 .45996095H.022949219V.51953127H.27001954V.453125C.28466798 .48014323 .30436198 .50024417 .32910157 .51342776 .35384117 .5266113 .3844401 .5332031 .42089845 .5332031 .49479167 .5332031 .5529785 .50884506 .595459 .46012879 .63793948 .41142274 .6591797 .34455363 .6591797 .25952149 .6591797 .17448934 .63793948 .107533778 .595459 .058654787 .5529785 .00978597 .49479167-.0146484379 .42089845-.0146484379 .3844401-.0146484379 .35384117-.008056641 .32910157 .005126953 .30436198 .018310547 .28466798 .038411458 .27001954 .06542969V-.1484375H.35009767V-.20800781H.022949219V-.1484375H.09716797V.45996095Z"/>
<path id="font_26_5" d="M.05078125-.15625V-.09765625C.10221354-.0663859 .13924153-.020055136 .16186524 .04133606 .18448894 .10273743 .19580078 .1894633 .19580078 .30151368 .19580078 .41388957 .18448894 .50077316 .16186524 .5621643 .13924153 .6235657 .10221354 .66990157 .05078125 .7011719V.7597656C.16178386 .71677657 .24405925 .6578267 .29760743 .58291628 .3511556 .5080058 .3779297 .41420494 .3779297 .30151368 .3779297 .18882244 .35083009 .09453329 .29663087 .01864624 .24243164-.057240804 .16048177-.11553955 .05078125-.15625Z"/>
<path id="font_1_24" d="M.115234378 .051757814V.7080078H.028808594V.7597656H.20507813V.43754579C.22265625 .47025047 .24503581 .4943695 .2722168 .50990298 .2993978 .5254364 .3330078 .5332031 .37304688 .5332031 .43684898 .5332031 .48893229 .5079498 .5292969 .45744325 .56966146 .4069468 .58984377 .3409729 .58984377 .25952149 .58984377 .17807007 .56966146 .11200968 .5292969 .061340333 .48893229 .010681152 .43684898-.0146484379 .37304688-.0146484379 .3330078-.0146484379 .2993978-.006881714 .2722168 .008651733 .24503581 .024195353 .22265625 .0483195 .20507813 .08102417V0H.028808594V.051757814H.115234378M.20507813 .2336731C.20507813 .17124431 .21704102 .123687747 .2409668 .09100342 .26489259 .058329267 .29964195 .041992189 .34521485 .041992189 .39111329 .041992189 .42586265 .06036377 .4494629 .09710693 .47306315 .1338501 .48486329 .18798828 .48486329 .25952149 .48486329 .33138023 .47306315 .3855184 .4494629 .42193605 .42586265 .45835368 .39111329 .4765625 .34521485 .4765625 .29964195 .4765625 .26489259 .46013896 .2409668 .42729188 .21704102 .39445497 .20507813 .34698487 .20507813 .2848816V.2336731Z"/>
<path id="font_1_30" d="M.20507813 .051757814H.29003907V0H.028808594V.051757814H.115234378V.7080078H.028808594V.7597656H.20507813V.051757814Z"/>
<path id="font_1_31" d="M.30078126 .034179689C.34895835 .034179689 .3853353 .053202314 .4099121 .09124756 .43448893 .1292928 .44677735 .18538411 .44677735 .25952149 .44677735 .33365885 .43448893 .3896688 .4099121 .42755128 .3853353 .46543376 .34895835 .484375 .30078126 .484375 .25260417 .484375 .21622722 .46543376 .19165039 .42755128 .16707357 .3896688 .15478516 .33365885 .15478516 .25952149 .15478516 .18538411 .16715496 .1292928 .19189453 .09124756 .21663411 .053202314 .2529297 .034179689 .30078126 .034179689M.30078126-.0146484379C.22526042-.0146484379 .16455078 .010355632 .118652347 .06036377 .072753909 .11038208 .049804689 .17676799 .049804689 .25952149 .049804689 .342275 .07267252 .40857444 .1184082 .4584198 .16414388 .50827535 .22493489 .5332031 .30078126 .5332031 .3766276 .5332031 .4374186 .50827535 .4831543 .4584198 .52888998 .40857444 .5517578 .342275 .5517578 .25952149 .5517578 .17676799 .52888998 .11038208 .4831543 .06036377 .4374186 .010355632 .3766276-.0146484379 .30078126-.0146484379Z"/>
<path id="font_1_3" d=""/>
<path id="font_1_28" d="M.09716797 .6813965C.09716797 .69643148 .102620448 .70950827 .11352539 .72062686 .124430339 .7317454 .13753255 .7373047 .15283203 .7373047 .16780599 .7373047 .18074544 .7317454 .19165039 .72062686 .20255535 .70950827 .20800781 .69643148 .20800781 .6813965 .20800781 .6660258 .20263672 .6529439 .19189453 .6421509 .18115235 .631368 .16813152 .62597659 .15283203 .62597659 .13753255 .62597659 .124430339 .631368 .11352539 .6421509 .102620448 .6529439 .09716797 .6660258 .09716797 .6813965M.21191406 .051757814H.296875V0H.036132814V.051757814H.12207031V.46679688H.036132814V.51953127H.21191406V.051757814Z"/>
<path id="font_1_37" d="M.040039064 0V.041992189L.36523438 .46679688H.107910159V.37695313H.056152345V.51953127H.48095704V.4774933L.15576172 .051757814H.43798829V.14648438H.49023438V0H.040039064Z"/>
<path id="font_1_26" d="M.5419922 .25H.15478516V.24609375C.15478516 .17610677 .16796875 .123291019 .19433594 .087646488 .22070313 .052001954 .25960288 .034179689 .31103517 .034179689 .3504232 .034179689 .3827311 .044514974 .40795899 .06518555 .43318687 .08585612 .45084635 .11653646 .4609375 .15722656H.5332031C.5188802 .100097659 .49243165 .057169599 .45385743 .028442383 .4152832-.00028483073 .36458335-.0146484379 .3017578-.0146484379 .22591146-.0146484379 .16495769 .010355632 .118896488 .06036377 .07283529 .11038208 .049804689 .17676799 .049804689 .25952149 .049804689 .34162394 .07242838 .40776063 .11767578 .45793153 .16292317 .5081126 .22233074 .5332031 .29589845 .5332031 .37434898 .5332031 .4345703 .5090332 .4765625 .46069337 .5185547 .41235353 .54036459 .3421224 .5419922 .25M.43603517 .3017578C.43408204 .36214195 .42130534 .40767417 .39770509 .4383545 .37410484 .46903483 .34016929 .484375 .29589845 .484375 .25455729 .484375 .2220052 .46895347 .19824219 .43811036 .17447917 .40726725 .15999349 .3618164 .15478516 .3017578H.43603517Z"/>
<path id="font_1_12" d="M.10595703 .45214845H.7319336V.37402345H.10595703V.45214845M.10595703 .2529297H.7319336V.17480469H.10595703V.2529297Z"/>
<path id="font_1_10" d="M.32714845 .034179689C.37304688 .034179689 .40836589 .050979616 .43310548 .08457947 .45784507 .11818949 .47021485 .16649373 .47021485 .22949219 .47021485 .29249064 .45784507 .3407898 .43310548 .37438966 .40836589 .40799967 .37304688 .4248047 .32714845 .4248047 .28059898 .4248047 .24511719 .40856935 .22070313 .37609864 .19628906 .34362794 .18408203 .29670716 .18408203 .2353363 .18408203 .17072042 .19645183 .1210378 .2211914 .08628845 .24593099 .051549276 .28125 .034179689 .32714845 .034179689M.16796875 .40045167C.19010417 .42500816 .21516927 .44334413 .24316406 .4554596 .27115885 .46757508 .30273438 .4736328 .33789063 .4736328 .41048179 .4736328 .46785484 .4518229 .51000979 .40820313 .55216476 .36458335 .5732422 .30501304 .5732422 .22949219 .5732422 .15559896 .5505371 .09643555 .50512698 .052001954 .4597168 .0075683596 .39908854-.0146484379 .3232422-.0146484379 .24088542-.0146484379 .17757161 .016052247 .13330078 .07745361 .089029949 .13885498 .06689453 .22655742 .06689453 .3405609 .06689453 .46824647 .09309896 .5671031 .14550781 .63713076 .19791667 .7071686 .2718099 .7421875 .3671875 .7421875 .39290367 .7421875 .41992188 .7397461 .4482422 .7348633 .4765625 .72998049 .5055339 .72265627 .53515627 .7128906V.59277346H.47998048C.47607423 .6254883 .46354167 .65043136 .4423828 .66760256 .42122398 .68477377 .39274089 .6933594 .3569336 .6933594 .29378257 .6933594 .2467448 .669398 .21582031 .6214752 .18489583 .5735524 .16894531 .49987794 .16796875 .40045167Z"/>
<path id="font_1_8" d="M.3491211 .24804688V.63497927L.100097659 .24804688H.3491211M.56396487 0H.2319336V.051757814H.3491211V.1953125H.030761719V.24848938L.35009767 .7421875H.44677735V.24804688H.5859375V.1953125H.44677735V.051757814H.56396487V0Z"/>
<path id="font_1_11" d="M.4658203 .19897461C.4658203 .25097657 .45288087 .29136149 .42700196 .3201294 .40112306 .3488973 .3647461 .36328126 .3178711 .36328126 .2709961 .36328126 .23461914 .3488973 .20874024 .3201294 .18286133 .29136149 .16992188 .25097657 .16992188 .19897461 .16992188 .14664714 .18286133 .10609945 .20874024 .07733154 .23461914 .04856364 .2709961 .034179689 .3178711 .034179689 .3647461 .034179689 .40112306 .04856364 .42700196 .07733154 .45288087 .10609945 .4658203 .14664714 .4658203 .19897461M.44580079 .5529785C.44580079 .59716799 .4345703 .6316121 .41210938 .65631106 .38964845 .68100997 .3582357 .6933594 .3178711 .6933594 .27783204 .6933594 .24650066 .68100997 .22387696 .65631106 .20125325 .6316121 .1899414 .59716799 .1899414 .5529785 .1899414 .50846359 .20125325 .4738566 .22387696 .4491577 .24650066 .42445884 .27783204 .41210938 .3178711 .41210938 .3582357 .41210938 .38964845 .42445884 .41210938 .4491577 .4345703 .4738566 .44580079 .50846359 .44580079 .5529785M.3930664 .38793946C.44840495 .38045249 .49153648 .36001588 .52246096 .32662965 .55338546 .2932434 .56884768 .25065104 .56884768 .19885254 .56884768 .13045247 .5472005 .07776896 .50390627 .040802003 .46061198 .0038350423 .39860026-.0146484379 .3178711-.0146484379 .23746746-.0146484379 .17553711 .0038350423 .13208008 .040802003 .08862305 .07776896 .06689453 .13045247 .06689453 .19885254 .06689453 .25065104 .08235677 .2932434 .11328125 .32662965 .14420574 .36001588 .1875 .38045249 .24316406 .38793946 .19401042 .39673869 .15633138 .41538493 .13012696 .44387818 .10392252 .4723816 .09082031 .508784 .09082031 .5530853 .09082031 .6117198 .1110026 .6578929 .15136719 .6916046 .19173177 .72532656 .24723308 .7421875 .3178711 .7421875 .38850913 .7421875 .4440104 .72532656 .484375 .6916046 .52473959 .6578929 .5449219 .6117198 .5449219 .5530853 .5449219 .508784 .53181967 .4723816 .50561526 .44387818 .4794108 .41538493 .44189454 .39673869 .3930664 .38793946Z"/>
<path id="font_1_35" d="M.24707031 0 .056152345 .46679688H-.0029296876V.51953127H.23583985V.46679688H.15283203L.29882813 .10986328 .44482423 .46679688H.3671875V.51953127H.5620117V.46679688H.50390627L.31298829 0H.24707031Z"/>
<path id="font_1_27" d="M.52490237 .46679688V.010955811C.52490237-.06365967 .50439456-.12124634 .4633789-.1618042 .42236329-.20237224 .36393229-.22265625 .28808595-.22265625 .25390626-.22265625 .2211914-.2195638 .1899414-.2133789 .1586914-.20719402 .12874349-.19791667 .100097659-.18554688V-.076171878H.14697266C.15283203-.11002604 .16666667-.13476563 .18847656-.15039063 .21028646-.16601563 .24153646-.17382813 .28222657-.17382813 .33496095-.17382813 .37361656-.15895589 .39819337-.12921143 .42277018-.099477138 .4350586-.05275472 .4350586 .010955811V.08105469C.41748048 .048339845 .39510093 .024210612 .36791993 .008666992 .34073893-.0068766276 .3071289-.0146484379 .26708985-.0146484379 .20328777-.0146484379 .15112305 .010681152 .1105957 .061340333 .07006836 .11200968 .049804689 .17807007 .049804689 .25952149 .049804689 .3409729 .06998698 .4069468 .11035156 .45744325 .15071614 .5079498 .20296224 .5332031 .26708985 .5332031 .3071289 .5332031 .34073893 .525472 .36791993 .51000979 .39510093 .49454753 .41748048 .47054038 .4350586 .43798829V.51953127H.61083987V.46679688H.52490237M.4350586 .28515626C.4350586 .34716798 .4230957 .39457194 .39916993 .42736817 .37524415 .4601644 .34049479 .4765625 .29492188 .4765625 .24869792 .4765625 .21378581 .45835368 .19018555 .42193605 .16658528 .3855184 .15478516 .33138023 .15478516 .25952149 .15478516 .18798828 .16658528 .1338501 .19018555 .09710693 .21378581 .06036377 .24869792 .041992189 .29492188 .041992189 .34049479 .041992189 .37524415 .05834961 .39916993 .09106445 .4230957 .1237793 .4350586 .17138672 .4350586 .23388672V.28515626Z"/>
</defs>
<path transform="matrix(1,0,0,-1,0,393.63035)" d="M0 0H602.74417V393.63035H0Z" fill="#ffffff"/>
<path transform="matrix(1,0,0,-1,0,393.63035)" d="M52.088125 48.431875H596.98416V303.16789H52.088125Z" fill="#fdfcf9"/>
<path transform="matrix(1,0,0,-1,0,393.63035)" d="M167.59604 48.431875V44.431875" fill="#2a2a2a"/>
<path transform="matrix(1,0,0,-1,0,393.63035)" stroke-width=".8" stroke-linecap="butt" stroke-linejoin="round" fill="none" stroke="#2a2a2a" d="M167.59604 48.431875V44.431875"/>
<use data-text="L" xlink:href="#font_1_17" transform="matrix(12,0,0,-12,135.24448,361.82347)" fill="#2a2a2a"/>
<use data-text="A" xlink:href="#font_1_13" transform="matrix(12,0,0,-12,143.21248,361.82347)" fill="#2a2a2a"/>
<use data-text="M" xlink:href="#font_1_18" transform="matrix(12,0,0,-12,151.87648,361.82347)" fill="#2a2a2a"/>
<use data-text="B" xlink:href="#font_1_14" transform="matrix(12,0,0,-12,164.16448,361.82347)" fill="#2a2a2a"/>
<use data-text="A" xlink:href="#font_1_13" transform="matrix(12,0,0,-12,172.98447,361.82347)" fill="#2a2a2a"/>
<use data-text="D" xlink:href="#font_1_15" transform="matrix(12,0,0,-12,181.64847,361.82347)" fill="#2a2a2a"/>
<use data-text="A" xlink:href="#font_1_13" transform="matrix(12,0,0,-12,191.27248,361.82347)" fill="#2a2a2a"/>
<path transform="matrix(1,0,0,-1,0,393.63035)" d="M324.53614 48.431875V44.431875" fill="#2a2a2a"/>
<path transform="matrix(1,0,0,-1,0,393.63035)" stroke-width=".8" stroke-linecap="butt" stroke-linejoin="round" fill="none" stroke="#2a2a2a" d="M324.53614 48.431875V44.431875"/>
<use data-text="M" xlink:href="#font_1_18" transform="matrix(12,0,0,-12,303.52833,361.82347)" fill="#2a2a2a"/>
<use data-text="M" xlink:href="#font_1_18" transform="matrix(12,0,0,-12,315.8163,361.82347)" fill="#2a2a2a"/>
<use data-text="L" xlink:href="#font_1_17" transform="matrix(12,0,0,-12,328.1043,361.82347)" fill="#2a2a2a"/>
<use data-text="U" xlink:href="#font_1_22" transform="matrix(12,0,0,-12,335.41609,361.82347)" fill="#2a2a2a"/>
<path transform="matrix(1,0,0,-1,0,393.63035)" d="M481.47624 48.431875V44.431875" fill="#2a2a2a"/>
<path transform="matrix(1,0,0,-1,0,393.63035)" stroke-width=".8" stroke-linecap="butt" stroke-linejoin="round" fill="none" stroke="#2a2a2a" d="M481.47624 48.431875V44.431875"/>
<use data-text="S" xlink:href="#font_1_20" transform="matrix(12,0,0,-12,465.74186,361.82347)" fill="#2a2a2a"/>
<use data-text="I" xlink:href="#font_1_16" transform="matrix(12,0,0,-12,473.96186,361.82347)" fill="#2a2a2a"/>
<use data-text="Q" xlink:href="#font_1_19" transform="matrix(12,0,0,-12,478.70185,361.82347)" fill="#2a2a2a"/>
<use data-text="A" xlink:href="#font_1_13" transform="matrix(12,0,0,-12,488.54185,361.82347)" fill="#2a2a2a"/>
<use data-text="T" xlink:href="#font_1_21" transform="matrix(14,0,0,-14,308.41896,384.96409)" fill="#2a2a2a"/>
<use data-text="a" xlink:href="#font_1_23" transform="matrix(14,0,0,-14,316.67884,384.96409)" fill="#2a2a2a"/>
<use data-text="s" xlink:href="#font_1_33" transform="matrix(14,0,0,-14,325.02284,384.96409)" fill="#2a2a2a"/>
<use data-text="k" xlink:href="#font_1_29" transform="matrix(14,0,0,-14,332.20484,384.96409)" fill="#2a2a2a"/>
<g clip-path="url(#clip_2)">
<path transform="matrix(1,0,0,-1,0,393.63035)" stroke-width=".65" stroke-linecap="butt" stroke-dasharray="2.405,1.04" stroke-linejoin="round" fill="none" stroke="#b9c3d0" stroke-opacity=".14" d="M52.088125 48.431875H596.98416"/>
</g>
<path transform="matrix(1,0,0,-1,0,393.63035)" d="M52.088125 48.431875H48.088125" fill="#2a2a2a"/>
<path transform="matrix(1,0,0,-1,0,393.63035)" stroke-width=".8" stroke-linecap="butt" stroke-linejoin="round" fill="none" stroke="#2a2a2a" d="M52.088125 48.431875H48.088125"/>
<use data-text="0" xlink:href="#font_1_4" transform="matrix(12,0,0,-12,36.9475,349.76097)" fill="#2a2a2a"/>
<g clip-path="url(#clip_3)">
<path transform="matrix(1,0,0,-1,0,393.63035)" stroke-width=".65" stroke-linecap="butt" stroke-dasharray="2.405,1.04" stroke-linejoin="round" fill="none" stroke="#b9c3d0" stroke-opacity=".14" d="M52.088125 83.27376H596.98416"/>
</g>
<path transform="matrix(1,0,0,-1,0,393.63035)" d="M52.088125 83.27376H48.088125" fill="#2a2a2a"/>
<path transform="matrix(1,0,0,-1,0,393.63035)" stroke-width=".8" stroke-linecap="butt" stroke-linejoin="round" fill="none" stroke="#2a2a2a" d="M52.088125 83.27376H48.088125"/>
<use data-text="5" xlink:href="#font_1_9" transform="matrix(12,0,0,-12,36.9475,314.91908)" fill="#2a2a2a"/>
<g clip-path="url(#clip_4)">
<path transform="matrix(1,0,0,-1,0,393.63035)" stroke-width=".65" stroke-linecap="butt" stroke-dasharray="2.405,1.04" stroke-linejoin="round" fill="none" stroke="#b9c3d0" stroke-opacity=".14" d="M52.088125 118.11565H596.98416"/>
</g>
<path transform="matrix(1,0,0,-1,0,393.63035)" d="M52.088125 118.11565H48.088125" fill="#2a2a2a"/>
<path transform="matrix(1,0,0,-1,0,393.63035)" stroke-width=".8" stroke-linecap="butt" stroke-linejoin="round" fill="none" stroke="#2a2a2a" d="M52.088125 118.11565H48.088125"/>
<use data-text="1" xlink:href="#font_1_5" transform="matrix(12,0,0,-12,29.306876,280.0772)" fill="#2a2a2a"/>
<use data-text="0" xlink:href="#font_1_4" transform="matrix(12,0,0,-12,36.938879,280.0772)" fill="#2a2a2a"/>
<g clip-path="url(#clip_5)">
<path transform="matrix(1,0,0,-1,0,393.63035)" stroke-width=".65" stroke-linecap="butt" stroke-dasharray="2.405,1.04" stroke-linejoin="round" fill="none" stroke="#b9c3d0" stroke-opacity=".14" d="M52.088125 152.95754H596.98416"/>
</g>
<path transform="matrix(1,0,0,-1,0,393.63035)" d="M52.088125 152.95754H48.088125" fill="#2a2a2a"/>
<path transform="matrix(1,0,0,-1,0,393.63035)" stroke-width=".8" stroke-linecap="butt" stroke-linejoin="round" fill="none" stroke="#2a2a2a" d="M52.088125 152.95754H48.088125"/>
<use data-text="1" xlink:href="#font_1_5" transform="matrix(12,0,0,-12,29.306876,245.2353)" fill="#2a2a2a"/>
<use data-text="5" xlink:href="#font_1_9" transform="matrix(12,0,0,-12,36.938879,245.2353)" fill="#2a2a2a"/>
<g clip-path="url(#clip_6)">
<path transform="matrix(1,0,0,-1,0,393.63035)" stroke-width=".65" stroke-linecap="butt" stroke-dasharray="2.405,1.04" stroke-linejoin="round" fill="none" stroke="#b9c3d0" stroke-opacity=".14" d="M52.088125 187.79943H596.98416"/>
</g>
<path transform="matrix(1,0,0,-1,0,393.63035)" d="M52.088125 187.79943H48.088125" fill="#2a2a2a"/>
<path transform="matrix(1,0,0,-1,0,393.63035)" stroke-width=".8" stroke-linecap="butt" stroke-linejoin="round" fill="none" stroke="#2a2a2a" d="M52.088125 187.79943H48.088125"/>
<use data-text="2" xlink:href="#font_1_6" transform="matrix(12,0,0,-12,29.306876,210.39342)" fill="#2a2a2a"/>
<use data-text="0" xlink:href="#font_1_4" transform="matrix(12,0,0,-12,36.938879,210.39342)" fill="#2a2a2a"/>
<g clip-path="url(#clip_7)">
<path transform="matrix(1,0,0,-1,0,393.63035)" stroke-width=".65" stroke-linecap="butt" stroke-dasharray="2.405,1.04" stroke-linejoin="round" fill="none" stroke="#b9c3d0" stroke-opacity=".14" d="M52.088125 222.64131H596.98416"/>
</g>
<path transform="matrix(1,0,0,-1,0,393.63035)" d="M52.088125 222.64131H48.088125" fill="#2a2a2a"/>
<path transform="matrix(1,0,0,-1,0,393.63035)" stroke-width=".8" stroke-linecap="butt" stroke-linejoin="round" fill="none" stroke="#2a2a2a" d="M52.088125 222.64131H48.088125"/>
<use data-text="2" xlink:href="#font_1_6" transform="matrix(12,0,0,-12,29.306876,175.55153)" fill="#2a2a2a"/>
<use data-text="5" xlink:href="#font_1_9" transform="matrix(12,0,0,-12,36.938879,175.55153)" fill="#2a2a2a"/>
<g clip-path="url(#clip_8)">
<path transform="matrix(1,0,0,-1,0,393.63035)" stroke-width=".65" stroke-linecap="butt" stroke-dasharray="2.405,1.04" stroke-linejoin="round" fill="none" stroke="#b9c3d0" stroke-opacity=".14" d="M52.088125 257.4832H596.98416"/>
</g>
<path transform="matrix(1,0,0,-1,0,393.63035)" d="M52.088125 257.4832H48.088125" fill="#2a2a2a"/>
<path transform="matrix(1,0,0,-1,0,393.63035)" stroke-width=".8" stroke-linecap="butt" stroke-linejoin="round" fill="none" stroke="#2a2a2a" d="M52.088125 257.4832H48.088125"/>
<use data-text="3" xlink:href="#font_1_7" transform="matrix(12,0,0,-12,29.306876,140.70964)" fill="#2a2a2a"/>
<use data-text="0" xlink:href="#font_1_4" transform="matrix(12,0,0,-12,36.938879,140.70964)" fill="#2a2a2a"/>
<g clip-path="url(#clip_9)">
<path transform="matrix(1,0,0,-1,0,393.63035)" stroke-width=".65" stroke-linecap="butt" stroke-dasharray="2.405,1.04" stroke-linejoin="round" fill="none" stroke="#b9c3d0" stroke-opacity=".14" d="M52.088125 292.32508H596.98416"/>
</g>
<path transform="matrix(1,0,0,-1,0,393.63035)" d="M52.088125 292.32508H48.088125" fill="#2a2a2a"/>
<path transform="matrix(1,0,0,-1,0,393.63035)" stroke-width=".8" stroke-linecap="butt" stroke-linejoin="round" fill="none" stroke="#2a2a2a" d="M52.088125 292.32508H48.088125"/>
<use data-text="3" xlink:href="#font_1_7" transform="matrix(12,0,0,-12,29.306876,105.86777)" fill="#2a2a2a"/>
<use data-text="5" xlink:href="#font_1_9" transform="matrix(12,0,0,-12,36.938879,105.86777)" fill="#2a2a2a"/>
<use data-text="A" xlink:href="#font_1_13" transform="matrix(0,-14,-14,-0,16.1975,250.62734)" fill="#2a2a2a"/>
<use data-text="c" xlink:href="#font_1_25" transform="matrix(0,-14,-14,-0,16.1975,240.51934)" fill="#2a2a2a"/>
<use data-text="c" xlink:href="#font_1_25" transform="matrix(0,-14,-14,-0,16.1975,232.67934)" fill="#2a2a2a"/>
<use data-text="u" xlink:href="#font_1_34" transform="matrix(0,-14,-14,-0,16.1975,224.83933)" fill="#2a2a2a"/>
<use data-text="r" xlink:href="#font_1_32" transform="matrix(0,-14,-14,-0,16.1975,215.82334)" fill="#2a2a2a"/>
<use data-text="a" xlink:href="#font_1_23" transform="matrix(0,-14,-14,-0,16.1975,209.13134)" fill="#2a2a2a"/>
<use data-text="c" xlink:href="#font_1_25" transform="matrix(0,-14,-14,-0,16.1975,200.78733)" fill="#2a2a2a"/>
<use data-text="y" xlink:href="#font_1_36" transform="matrix(0,-14,-14,-0,16.1975,192.94733)" fill="#2a2a2a"/>
<g clip-path="url(#clip_10)">
<path transform="matrix(1,0,0,-1,0,393.63035)" stroke-width="1.9" stroke-linecap="butt" stroke-dasharray="7.6,3.8" stroke-linejoin="round" fill="none" stroke="#3b628b" stroke-opacity=".9" d="M81.278987 176.41774H567.7933"/>
</g>
<g clip-path="url(#clip_11)">
<path transform="matrix(1,0,0,-1,0,393.63035)" stroke-width="1.9" stroke-linecap="butt" stroke-dasharray="7.6,3.8" stroke-linejoin="round" fill="none" stroke="#cf7312" stroke-opacity=".9" d="M81.278987 195.23236H567.7933"/>
</g>
<g clip-path="url(#clip_12)">
<path transform="matrix(1,0,0,-1,0,393.63035)" stroke-width="1.9" stroke-linecap="butt" stroke-dasharray="7.6,3.8" stroke-linejoin="round" fill="none" stroke="#45813b" stroke-opacity=".9" d="M81.278987 131.58785H567.7933"/>
</g>
<g clip-path="url(#clip_13)">
<path transform="matrix(1,0,0,-1,0,393.63035)" stroke-width="1.9" stroke-linecap="butt" stroke-dasharray="7.6,3.8" stroke-linejoin="round" fill="none" stroke="#8e5e90" stroke-opacity=".9" d="M81.278987 115.096019H567.7933"/>
</g>
<path transform="matrix(1,0,0,-1,0,393.63035)" stroke-width="1.15" stroke-linecap="square" stroke-miterlimit="10" stroke-linejoin="miter" fill="none" stroke="#c8c2b6" d="M52.088125 48.431875V303.16789"/>
<path transform="matrix(1,0,0,-1,0,393.63035)" stroke-width="1.15" stroke-linecap="square" stroke-miterlimit="10" stroke-linejoin="miter" fill="none" stroke="#c8c2b6" d="M52.088125 48.431875H596.98416"/>
<g clip-path="url(#clip_14)">
<path transform="matrix(1,0,0,-1,0,393.63035)" d="M110.67386 48.431875H132.70825V258.18003H110.67386Z" fill="#4e79a7" fill-opacity=".82"/>
<path transform="matrix(1,0,0,-1,0,393.63035)" stroke-width="2.6" stroke-linecap="butt" stroke-miterlimit="10" stroke-linejoin="miter" fill="none" stroke="#3b628b" d="M110.67386 48.431875H132.70825V258.18003H110.67386Z"/>
</g>
<g clip-path="url(#clip_15)">
<path transform="matrix(1,0,0,-1,0,393.63035)" d="M267.61396 48.431875H289.64836V58.88444H267.61396Z" fill="#4e79a7" fill-opacity=".82"/>
<path transform="matrix(1,0,0,-1,0,393.63035)" stroke-width="2.6" stroke-linecap="butt" stroke-miterlimit="10" stroke-linejoin="miter" fill="none" stroke="#3b628b" d="M267.61396 48.431875H289.64836V58.88444H267.61396Z"/>
</g>
<g clip-path="url(#clip_16)">
<path transform="matrix(1,0,0,-1,0,393.63035)" d="M424.55406 48.431875H446.58845V212.18874H424.55406Z" fill="#4e79a7" fill-opacity=".82"/>
<path transform="matrix(1,0,0,-1,0,393.63035)" stroke-width="2.6" stroke-linecap="butt" stroke-miterlimit="10" stroke-linejoin="miter" fill="none" stroke="#3b628b" d="M424.55406 48.431875H446.58845V212.18874H424.55406Z"/>
</g>
<g clip-path="url(#clip_17)">
<path transform="matrix(1,0,0,-1,0,393.63035)" d="M141.27718 48.431875H163.31157V276.99467H141.27718Z" fill="#f28e2b" fill-opacity=".82"/>
<path transform="matrix(1,0,0,-1,0,393.63035)" stroke-width="2.6" stroke-linecap="butt" stroke-miterlimit="10" stroke-linejoin="miter" fill="none" stroke="#cf7312" d="M141.27718 48.431875H163.31157V276.99467H141.27718Z"/>
</g>
<g clip-path="url(#clip_18)">
<path transform="matrix(1,0,0,-1,0,393.63035)" d="M298.2173 48.431875H320.25166V100.6947H298.2173Z" fill="#f28e2b" fill-opacity=".82"/>
<path transform="matrix(1,0,0,-1,0,393.63035)" stroke-width="2.6" stroke-linecap="butt" stroke-miterlimit="10" stroke-linejoin="miter" fill="none" stroke="#cf7312" d="M298.2173 48.431875H320.25166V100.6947H298.2173Z"/>
</g>
<g clip-path="url(#clip_19)">
<path transform="matrix(1,0,0,-1,0,393.63035)" d="M455.15739 48.431875H477.19175V208.00772H455.15739Z" fill="#f28e2b" fill-opacity=".82"/>
<path transform="matrix(1,0,0,-1,0,393.63035)" stroke-width="2.6" stroke-linecap="butt" stroke-miterlimit="10" stroke-linejoin="miter" fill="none" stroke="#cf7312" d="M455.15739 48.431875H477.19175V208.00772H455.15739Z"/>
</g>
<g clip-path="url(#clip_20)">
<path transform="matrix(1,0,0,-1,0,393.63035)" d="M171.8805 48.431875H193.91489V226.1255H171.8805Z" fill="#59a14f" fill-opacity=".82"/>
<path transform="matrix(1,0,0,-1,0,393.63035)" stroke-width="2.6" stroke-linecap="butt" stroke-miterlimit="10" stroke-linejoin="miter" fill="none" stroke="#45813b" d="M171.8805 48.431875H193.91489V226.1255H171.8805Z"/>
</g>
<g clip-path="url(#clip_21)">
<path transform="matrix(1,0,0,-1,0,393.63035)" d="M328.8206 48.431875H350.85499V84.667438H328.8206Z" fill="#59a14f" fill-opacity=".82"/>
<path transform="matrix(1,0,0,-1,0,393.63035)" stroke-width="2.6" stroke-linecap="butt" stroke-miterlimit="10" stroke-linejoin="miter" fill="none" stroke="#45813b" d="M328.8206 48.431875H350.85499V84.667438H328.8206Z"/>
</g>
<g clip-path="url(#clip_22)">
<path transform="matrix(1,0,0,-1,0,393.63035)" d="M485.76069 48.431875H507.79508V83.9706H485.76069Z" fill="#59a14f" fill-opacity=".82"/>
<path transform="matrix(1,0,0,-1,0,393.63035)" stroke-width="2.6" stroke-linecap="butt" stroke-miterlimit="10" stroke-linejoin="miter" fill="none" stroke="#45813b" d="M485.76069 48.431875H507.79508V83.9706H485.76069Z"/>
</g>
<g clip-path="url(#clip_23)">
<path transform="matrix(1,0,0,-1,0,393.63035)" d="M202.48381 48.431875H224.5182V198.25199H202.48381Z" fill="#b07aa1" fill-opacity=".82"/>
<path transform="matrix(1,0,0,-1,0,393.63035)" stroke-width="2.6" stroke-linecap="butt" stroke-miterlimit="10" stroke-linejoin="miter" fill="none" stroke="#8e5e90" d="M202.48381 48.431875H224.5182V198.25199H202.48381Z"/>
</g>
<g clip-path="url(#clip_24)">
<path transform="matrix(1,0,0,-1,0,393.63035)" d="M359.42393 48.431875H381.45829V81.88009H359.42393Z" fill="#b07aa1" fill-opacity=".82"/>
<path transform="matrix(1,0,0,-1,0,393.63035)" stroke-width="2.6" stroke-linecap="butt" stroke-miterlimit="10" stroke-linejoin="miter" fill="none" stroke="#8e5e90" d="M359.42393 48.431875H381.45829V81.88009H359.42393Z"/>
</g>
<g clip-path="url(#clip_25)">
<path transform="matrix(1,0,0,-1,0,393.63035)" d="M516.364 48.431875H538.3984V65.15598H516.364Z" fill="#b07aa1" fill-opacity=".82"/>
<path transform="matrix(1,0,0,-1,0,393.63035)" stroke-width="2.6" stroke-linecap="butt" stroke-miterlimit="10" stroke-linejoin="miter" fill="none" stroke="#8e5e90" d="M516.364 48.431875H538.3984V65.15598H516.364Z"/>
</g>
<use data-text="1" xlink:href="#font_26_8" transform="matrix(20,0,0,-20,172.61425,74.46246)" fill="#202020"/>
<use data-text="1" xlink:href="#font_26_8" transform="matrix(20,0,0,-20,186.53424,74.46246)" fill="#202020"/>
<use data-text="6" xlink:href="#font_26_10" transform="matrix(20,0,0,-20,200.45424,74.46246)" fill="#202020"/>
<use data-text="." xlink:href="#font_26_6" transform="matrix(20,0,0,-20,214.37424,74.46246)" fill="#202020"/>
<use data-text="7" xlink:href="#font_26_11" transform="matrix(20,0,0,-20,221.33425,74.46246)" fill="#202020"/>
<use data-text="8" xlink:href="#font_26_12" transform="matrix(20,0,0,-20,235.25424,74.46246)" fill="#202020"/>
<use data-text=" " xlink:href="#font_26_3" transform="matrix(20,0,0,-20,249.17426,74.46246)" fill="#202020"/>
<use data-text="E" xlink:href="#font_26_13" transform="matrix(20,0,0,-20,256.13426,74.46246)" fill="#202020"/>
<use data-text="F" xlink:href="#font_26_14" transform="matrix(20,0,0,-20,271.37425,74.46246)" fill="#202020"/>
<use data-text="L" xlink:href="#font_26_15" transform="matrix(20,0,0,-20,285.57426,74.46246)" fill="#202020"/>
<use data-text="O" xlink:href="#font_26_16" transform="matrix(20,0,0,-20,299.63426,74.46246)" fill="#202020"/>
<use data-text="P" xlink:href="#font_26_17" transform="matrix(20,0,0,-20,317.05427,74.46246)" fill="#202020"/>
<use data-text="s" xlink:href="#font_26_21" transform="matrix(20,0,0,-20,332.09425,74.46246)" fill="#202020"/>
<use data-text=" " xlink:href="#font_26_3" transform="matrix(20,0,0,-20,343.35426,74.46246)" fill="#202020"/>
<use data-text="(" xlink:href="#font_26_4" transform="matrix(20,0,0,-20,350.31428,74.46246)" fill="#202020"/>
<use data-text="3" xlink:href="#font_26_9" transform="matrix(20,0,0,-20,359.77427,74.46246)" fill="#202020"/>
<use data-text="0" xlink:href="#font_26_7" transform="matrix(20,0,0,-20,373.69429,74.46246)" fill="#202020"/>
<use data-text="k" xlink:href="#font_26_19" transform="matrix(20,0,0,-20,387.61427,74.46246)" fill="#202020"/>
<use data-text=" " xlink:href="#font_26_3" transform="matrix(20,0,0,-20,401.47425,74.46246)" fill="#202020"/>
<use data-text="s" xlink:href="#font_26_21" transform="matrix(20,0,0,-20,408.43428,74.46246)" fill="#202020"/>
<use data-text="t" xlink:href="#font_26_22" transform="matrix(20,0,0,-20,419.69429,74.46246)" fill="#202020"/>
<use data-text="e" xlink:href="#font_26_18" transform="matrix(20,0,0,-20,428.93428,74.46246)" fill="#202020"/>
<use data-text="p" xlink:href="#font_26_20" transform="matrix(20,0,0,-20,441.65425,74.46246)" fill="#202020"/>
<use data-text="s" xlink:href="#font_26_21" transform="matrix(20,0,0,-20,455.63429,74.46246)" fill="#202020"/>
<use data-text=")" xlink:href="#font_26_5" transform="matrix(20,0,0,-20,466.8943,74.46246)" fill="#202020"/>
<path transform="matrix(1,0,0,-1,0,393.63035)" d="M126.27675 373.94535H155.07675V382.34538H126.27675Z" fill="#4e79a7" fill-opacity=".82"/>
<path transform="matrix(1,0,0,-1,0,393.63035)" stroke-width="2.6" stroke-linecap="butt" stroke-miterlimit="10" stroke-linejoin="miter" fill="none" stroke="#3b628b" d="M126.27675 373.94535H155.07675V382.34538H126.27675Z"/>
<use data-text="b" xlink:href="#font_1_24" transform="matrix(12,0,0,-12,161.07675,19.684998)" fill="#202020"/>
<use data-text="l" xlink:href="#font_1_30" transform="matrix(12,0,0,-12,168.75675,19.684998)" fill="#202020"/>
<use data-text="o" xlink:href="#font_1_31" transform="matrix(12,0,0,-12,172.59676,19.684998)" fill="#202020"/>
<use data-text="c" xlink:href="#font_1_25" transform="matrix(12,0,0,-12,179.82076,19.684998)" fill="#202020"/>
<use data-text="k" xlink:href="#font_1_29" transform="matrix(12,0,0,-12,186.54076,19.684998)" fill="#202020"/>
<use data-text=" " xlink:href="#font_1_3" transform="matrix(12,0,0,-12,193.81275,19.684998)" fill="#202020"/>
<use data-text="s" xlink:href="#font_1_33" transform="matrix(12,0,0,-12,197.62876,19.684998)" fill="#202020"/>
<use data-text="i" xlink:href="#font_1_28" transform="matrix(12,0,0,-12,203.78476,19.684998)" fill="#202020"/>
<use data-text="z" xlink:href="#font_1_37" transform="matrix(12,0,0,-12,207.62476,19.684998)" fill="#202020"/>
<use data-text="e" xlink:href="#font_1_26" transform="matrix(12,0,0,-12,213.94876,19.684998)" fill="#202020"/>
<use data-text="=" xlink:href="#font_1_12" transform="matrix(12,0,0,-12,221.05275,19.684998)" fill="#202020"/>
<use data-text="1" xlink:href="#font_1_5" transform="matrix(12,0,0,-12,231.10877,19.684998)" fill="#202020"/>
<path transform="matrix(1,0,0,-1,0,393.63035)" d="M126.27675 356.32035H155.07675V364.72038H126.27675Z" fill="#f28e2b" fill-opacity=".82"/>
<path transform="matrix(1,0,0,-1,0,393.63035)" stroke-width="2.6" stroke-linecap="butt" stroke-miterlimit="10" stroke-linejoin="miter" fill="none" stroke="#cf7312" d="M126.27675 356.32035H155.07675V364.72038H126.27675Z"/>
<use data-text="b" xlink:href="#font_1_24" transform="matrix(12,0,0,-12,161.07675,37.309999)" fill="#202020"/>
<use data-text="l" xlink:href="#font_1_30" transform="matrix(12,0,0,-12,168.75675,37.309999)" fill="#202020"/>
<use data-text="o" xlink:href="#font_1_31" transform="matrix(12,0,0,-12,172.59676,37.309999)" fill="#202020"/>
<use data-text="c" xlink:href="#font_1_25" transform="matrix(12,0,0,-12,179.82076,37.309999)" fill="#202020"/>
<use data-text="k" xlink:href="#font_1_29" transform="matrix(12,0,0,-12,186.54076,37.309999)" fill="#202020"/>
<use data-text=" " xlink:href="#font_1_3" transform="matrix(12,0,0,-12,193.81275,37.309999)" fill="#202020"/>
<use data-text="s" xlink:href="#font_1_33" transform="matrix(12,0,0,-12,197.62876,37.309999)" fill="#202020"/>
<use data-text="i" xlink:href="#font_1_28" transform="matrix(12,0,0,-12,203.78476,37.309999)" fill="#202020"/>
<use data-text="z" xlink:href="#font_1_37" transform="matrix(12,0,0,-12,207.62476,37.309999)" fill="#202020"/>
<use data-text="e" xlink:href="#font_1_26" transform="matrix(12,0,0,-12,213.94876,37.309999)" fill="#202020"/>
<use data-text="=" xlink:href="#font_1_12" transform="matrix(12,0,0,-12,221.05275,37.309999)" fill="#202020"/>
<use data-text="1" xlink:href="#font_1_5" transform="matrix(12,0,0,-12,231.10877,37.309999)" fill="#202020"/>
<use data-text="6" xlink:href="#font_1_10" transform="matrix(12,0,0,-12,238.74076,37.309999)" fill="#202020"/>
<path transform="matrix(1,0,0,-1,0,393.63035)" d="M259.6049 373.94535H288.40489V382.34538H259.6049Z" fill="#59a14f" fill-opacity=".82"/>
<path transform="matrix(1,0,0,-1,0,393.63035)" stroke-width="2.6" stroke-linecap="butt" stroke-miterlimit="10" stroke-linejoin="miter" fill="none" stroke="#45813b" d="M259.6049 373.94535H288.40489V382.34538H259.6049Z"/>
<use data-text="b" xlink:href="#font_1_24" transform="matrix(12,0,0,-12,294.40489,19.684998)" fill="#202020"/>
<use data-text="l" xlink:href="#font_1_30" transform="matrix(12,0,0,-12,302.08488,19.684998)" fill="#202020"/>
<use data-text="o" xlink:href="#font_1_31" transform="matrix(12,0,0,-12,305.92488,19.684998)" fill="#202020"/>
<use data-text="c" xlink:href="#font_1_25" transform="matrix(12,0,0,-12,313.14888,19.684998)" fill="#202020"/>
<use data-text="k" xlink:href="#font_1_29" transform="matrix(12,0,0,-12,319.86888,19.684998)" fill="#202020"/>
<use data-text=" " xlink:href="#font_1_3" transform="matrix(12,0,0,-12,327.14088,19.684998)" fill="#202020"/>
<use data-text="s" xlink:href="#font_1_33" transform="matrix(12,0,0,-12,330.95689,19.684998)" fill="#202020"/>
<use data-text="i" xlink:href="#font_1_28" transform="matrix(12,0,0,-12,337.11289,19.684998)" fill="#202020"/>
<use data-text="z" xlink:href="#font_1_37" transform="matrix(12,0,0,-12,340.95289,19.684998)" fill="#202020"/>
<use data-text="e" xlink:href="#font_1_26" transform="matrix(12,0,0,-12,347.2769,19.684998)" fill="#202020"/>
<use data-text="=" xlink:href="#font_1_12" transform="matrix(12,0,0,-12,354.3809,19.684998)" fill="#202020"/>
<use data-text="6" xlink:href="#font_1_10" transform="matrix(12,0,0,-12,364.4369,19.684998)" fill="#202020"/>
<use data-text="4" xlink:href="#font_1_8" transform="matrix(12,0,0,-12,372.06889,19.684998)" fill="#202020"/>
<path transform="matrix(1,0,0,-1,0,393.63035)" d="M259.6049 356.32035H288.40489V364.72038H259.6049Z" fill="#b07aa1" fill-opacity=".82"/>
<path transform="matrix(1,0,0,-1,0,393.63035)" stroke-width="2.6" stroke-linecap="butt" stroke-miterlimit="10" stroke-linejoin="miter" fill="none" stroke="#8e5e90" d="M259.6049 356.32035H288.40489V364.72038H259.6049Z"/>
<use data-text="b" xlink:href="#font_1_24" transform="matrix(12,0,0,-12,294.40489,37.309999)" fill="#202020"/>
<use data-text="l" xlink:href="#font_1_30" transform="matrix(12,0,0,-12,302.08488,37.309999)" fill="#202020"/>
<use data-text="o" xlink:href="#font_1_31" transform="matrix(12,0,0,-12,305.92488,37.309999)" fill="#202020"/>
<use data-text="c" xlink:href="#font_1_25" transform="matrix(12,0,0,-12,313.14888,37.309999)" fill="#202020"/>
<use data-text="k" xlink:href="#font_1_29" transform="matrix(12,0,0,-12,319.86888,37.309999)" fill="#202020"/>
<use data-text=" " xlink:href="#font_1_3" transform="matrix(12,0,0,-12,327.14088,37.309999)" fill="#202020"/>
<use data-text="s" xlink:href="#font_1_33" transform="matrix(12,0,0,-12,330.95689,37.309999)" fill="#202020"/>
<use data-text="i" xlink:href="#font_1_28" transform="matrix(12,0,0,-12,337.11289,37.309999)" fill="#202020"/>
<use data-text="z" xlink:href="#font_1_37" transform="matrix(12,0,0,-12,340.95289,37.309999)" fill="#202020"/>
<use data-text="e" xlink:href="#font_1_26" transform="matrix(12,0,0,-12,347.2769,37.309999)" fill="#202020"/>
<use data-text="=" xlink:href="#font_1_12" transform="matrix(12,0,0,-12,354.3809,37.309999)" fill="#202020"/>
<use data-text="1" xlink:href="#font_1_5" transform="matrix(12,0,0,-12,364.4369,37.309999)" fill="#202020"/>
<use data-text="2" xlink:href="#font_1_6" transform="matrix(12,0,0,-12,372.06889,37.309999)" fill="#202020"/>
<use data-text="8" xlink:href="#font_1_11" transform="matrix(12,0,0,-12,379.7009,37.309999)" fill="#202020"/>
<path transform="matrix(1,0,0,-1,0,393.63035)" stroke-width="1.8" stroke-linecap="butt" stroke-dasharray="7.2,3.6" stroke-linejoin="round" fill="none" stroke="#555555" d="M400.57365 378.14537H414.97364 429.37364"/>
<use data-text="T" xlink:href="#font_1_21" transform="matrix(12,0,0,-12,435.37364,19.684998)" fill="#202020"/>
<use data-text="a" xlink:href="#font_1_23" transform="matrix(12,0,0,-12,442.45576,19.684998)" fill="#202020"/>
<use data-text="s" xlink:href="#font_1_33" transform="matrix(12,0,0,-12,449.60777,19.684998)" fill="#202020"/>
<use data-text="k" xlink:href="#font_1_29" transform="matrix(12,0,0,-12,455.76377,19.684998)" fill="#202020"/>
<use data-text="s" xlink:href="#font_1_33" transform="matrix(12,0,0,-12,463.03578,19.684998)" fill="#202020"/>
<use data-text=" " xlink:href="#font_1_3" transform="matrix(12,0,0,-12,469.19175,19.684998)" fill="#202020"/>
<use data-text="A" xlink:href="#font_1_13" transform="matrix(12,0,0,-12,473.00776,19.684998)" fill="#202020"/>
<use data-text="v" xlink:href="#font_1_35" transform="matrix(12,0,0,-12,481.18739,19.684998)" fill="#202020"/>
<use data-text="e" xlink:href="#font_1_26" transform="matrix(12,0,0,-12,487.96739,19.684998)" fill="#202020"/>
<use data-text="r" xlink:href="#font_1_32" transform="matrix(12,0,0,-12,495.07139,19.684998)" fill="#202020"/>
<use data-text="a" xlink:href="#font_1_23" transform="matrix(12,0,0,-12,500.80738,19.684998)" fill="#202020"/>
<use data-text="g" xlink:href="#font_1_27" transform="matrix(12,0,0,-12,507.95939,19.684998)" fill="#202020"/>
<use data-text="e" xlink:href="#font_1_26" transform="matrix(12,0,0,-12,515.6394,19.684998)" fill="#202020"/>
</svg>
